# xmcd
#
# Track frame offsets:
#	150
#	12217
#	27614
#	43014
#	55949
#	73098
#	94086
#	110672
#	123895
#	138535
#	153535
#	168763
#	181845
#
# Disc length: 2698 seconds
# Revision: 0
# Processed by: cddbd v1.5.2PL0 Copyright (c) Steve Scherf et al.
# Submitted via: dBpowerAMP V12.0
#
DISCID=af0a880d
DTITLE=Carol Elizabeth Jones and Laurel Bliss - Ridin' Along
DYEAR=2005
DGENRE=Folk
TTITLE0=I Ain't Got Time
TTITLE1=The Fugitive's Lament
TTITLE2=I Want to Be With You Always
TTITLE3=Jealous Hearted Me
TTITLE4=Mountain Laurel
TTITLE5=Resurrection Day
TTITLE6=Stormy Waters
TTITLE7=Sit at Home
TTITLE8=I Heard the Bluebirds Sing
TTITLE9=It's Your Time to Be Blue
TTITLE10=The Cyclone of Rye Cove
TTITLE11=Wasted
TTITLE12=By and By
EXTD=
EXTT0=
EXTT1=
EXTT2=
EXTT3=
EXTT4=
EXTT5=
EXTT6=
EXTT7=
EXTT8=
EXTT9=
EXTT10=
EXTT11=
EXTT12=
PLAYORDER=
